<svg width="32" height="32" viewBox="0 0 512 512" fill="none" xmlns="http://www.w3.org/2000/svg">
  <rect width="512" height="512" rx="128" fill="#DC2626"/>
  <path d="M256 420C345.905 420 420 345.905 420 256C420 166.095 345.905 92 256 92C166.095 92 92 166.095 92 256C92 345.905 166.095 420 256 420Z" fill="white"/>
  <path d="M256 380C323.885 380 380 323.885 380 256C380 188.115 323.885 132 256 132C188.115 132 132 188.115 132 256C132 323.885 188.115 380 256 380Z" fill="#DC2626"/>
  <path d="M256 330C296.317 330 330 296.317 330 256C330 215.683 296.317 182 256 182C215.683 182 182 215.683 182 256C182 296.317 215.683 330 256 330Z" fill="white"/>
  <path d="M190 236C190 225.507 198.507 217 209 217C219.493 217 228 225.507 228 236V276C228 286.493 219.493 295 209 295C198.507 295 190 286.493 190 276V236Z" fill="#DC2626"/>
  <path d="M244 236C244 225.507 252.507 217 263 217C273.493 217 282 225.507 282 236V276C282 286.493 273.493 295 263 295C252.507 295 244 286.493 244 276V236Z" fill="#DC2626"/>
  <path d="M298 236C298 225.507 306.507 217 317 217C327.493 217 336 225.507 336 236V276C336 286.493 327.493 295 317 295C306.507 295 298 286.493 298 276V236Z" fill="#DC2626"/>
</svg>