<svg width="32" height="32" viewBox="0 0 512 512" fill="none" xmlns="http://www.w3.org/2000/svg">
  <!-- Background circle -->
  <rect width="512" height="512" rx="128" fill="#DC2626"/>
  
  <!-- Main plate -->
  <circle cx="256" cy="256" r="160" fill="white"/>
  
  <!-- Food elements -->
  <g transform="translate(120, 170) scale(0.55)">
    <!-- Fork and knife design inspired by Flaticon -->
    <path d="M384 64c-8.8 0-16 7.2-16 16v144h-32V80c0-8.8-7.2-16-16-16s-16 7.2-16 16v144h-32V80c0-8.8-7.2-16-16-16s-16 7.2-16 16v144h-32V80c0-8.8-7.2-16-16-16s-16 7.2-16 16v152c0 30.9 25.1 56 56 56h8v176c0 8.8 7.2 16 16 16s16-7.2 16-16V288h8c30.9 0 56-25.1 56-56V80c0-8.8-7.2-16-16-16zm-160 0c-8.8 0-16 7.2-16 16v32c0 8.8 7.2 16 16 16s16-7.2 16-16V80c0-8.8-7.2-16-16-16z" fill="#DC2626"/>

    <!-- Stylized plate with food -->
    <path d="M124.8 74.8c26.5-26.5 69.4-26.5 96 0l3.9 3.9c4.2 4.2 10 6.6 16 6.6c12.5 0 22.6-10.1 22.6-22.6c0-6 2.4-11.8 6.6-16l3.9-3.9c26.5-26.5 69.4-26.5 96 0s26.5 69.4 0 96l-160 160c-12.5 12.5-32.8 12.5-45.3 0l-88-88c-26.5-26.5-26.5-69.4 0-96l48.5 48.5c6.2 6.2 16.4 6.2 22.6 0s6.2-16.4 0-22.6l-48.5-48.5c-26.5-26.5-26.5-69.4 0-96z" fill="#DC2626"/>
  </g>
</svg>